<?xml version="1.0" encoding="UTF-8"?><svg id="_レイヤー_1" xmlns="http://www.w3.org/2000/svg" viewBox="0 0 200.00001 133.62108"><defs><style>.cls-1{fill:#231815;}</style></defs><path class="cls-1" d="m101.22492,80.01403c-.5766-.05981-.42419-.06604-.82477-.14954-.46039-.09595-.83008-.42877-.97687-.87561l-4.42816-13.47815c-.16943-.51453-.10315-1.06311.18036-1.50513,4.10315-6.39545,3.98065-8.76324,3.31219-13.50891-.14032-.99707-.29626-2.117-.41833-3.4458,4.33197-3.86133,9.71863-7.11798,16.20612-8.31934,1.16589-.21558,1.93671-1.33612,1.72028-2.50201-.21552-1.16711-1.34369-1.93707-2.50195-1.72028-5.50232,1.01874-10.77148,3.4458-15.62189,7.13263.08569-4.16455,1.51257-7.31525,4.2627-9.35406,3.20148-2.37445,8.12915-3.05975,12.54852-1.74707,7.98071,2.36987,19.92114,2.67059,24.57373.61859,3.34827-1.47705,6.59088-4.26044,9.91229-8.50958,3.44897-4.41223,7.78198-7.74078,7.86835-7.80792.02686-.02136,2.66638-2.13458,4.96625-3.18433,1.14209-.5213,1.60809-1.91907.96478-3.03326-.57452-.995-1.86401-1.29004-2.90381-.80139-2.73676,1.28619-5.59448,3.57294-5.67346,3.63757-.19458.14801-4.80438,3.68213-8.60559,8.54437-2.87524,3.67792-5.5777,6.0415-8.26172,7.2254-3.42462,1.51013-14.07336,1.43427-21.61792-.80603-4.51245-1.3399-11.17218-1.40997-16.32965,2.41388-2.71838,2.01593-5.96851,5.91656-6.01215,13.05096-.00763,1.24988.0246,2.36676.07745,3.39203-1.8161,1.75793-3.55981,3.7016-5.21313,5.83887-1.9635,2.5376-3.5462,4.99725-4.76495,7.09918-1.09033-2.12329-3.0379-4.13464-6.31409-5.42883-.15265-.05743-3.80457-1.40991-9.82007-.65338-.85638.10779-2.091.30237-3.54541.64539-.0025-.00079-.00421-.00165-.00671-.0025-10.63281-3.36884-20.02014,3.03503-24.94025,7.47791-.88403-23.76849-1.41663-45.03333-1.5542-50.78717,24.74396-8.96082,51.75092-3.45355,52.02686-3.39655,1.15497.24579,2.29816-.49823,2.54309-1.65906.24408-1.15997-.49823-2.29816-1.6582-2.54309-1.19275-.25116-29.53748-6.04944-55.86749,4.12-.8446.32581-1.39398,1.14655-1.37305,2.05115.00586.27258.62653,27.6037,1.78149,57.37598.03442.89325.61902,1.67163,1.46613,1.95428.84467.28015,1.78235.01086,2.34601-.68274.08807-.10907,7.10339-8.60431,16.20886-10.26294-1.13818.70911-2.24701,1.53113-3.28204,2.48352-3.8725,3.56213-6.36273,7.922-7.01276,12.27679-.25165,1.68506-.20972,3.29877.12579,4.79761.58374,2.60602,2.03314,4.89496,4.08051,6.44666,2.51544,1.90479,5.39819,2.41223,7.75507,2.41223,1.60205,0,2.96161-.23425,3.79706-.42352,5.10309-1.15643,7.55347-4.33173,8.5871-5.78406,1.40717-1.97717,6.18579-9.85278,3.93457-17.46484-.44952-1.52112-1.31512-3.31812-2.96411-4.94238,3.68549-.18115,5.81842.56537,5.82092.56537,5.77728,2.2818,4.7616,7.38098,4.63074,7.93958-.27509,1.0954.34558,2.216,1.41998,2.56409,1.07446.34808,2.23444-.19543,2.65637-1.24304.05377-.13477,3.23193-7.85895,9.70538-15.13361.00781.05615.01636.11816.02411.17322.55524,3.93964.74146,5.26697-2.6748,10.59174-.98468,1.53534-1.21954,3.41791-.64496,5.16461l4.78925,14.57581c.02264.06879.05286.13416.078.20215.29871.80701,1.01447,2.67725,5.3244,2.67853,1.22455.00043,2.15417-.82367,2.25592-1.94629.1156-1.27625-.89264-2.21851-2.13812-2.34766Zm-35.53235-4.10736c-1.02325,1.48047-2.9541,3.58563-6.22101,4.32544-1.15332.26166-5.1449.9469-8.01093-1.2229-1.2204-.92517-2.12543-2.36951-2.48273-3.96228-.21887-.97968-.24237-2.06415-.06879-3.22412.49823-3.33911,2.56573-6.89331,5.67249-9.75134,2.27216-2.09015,5.54333-3.77942,9.19189-4.80518,2.6991,1.09247,4.35645,2.77625,5.05011,5.12347,1.56256,5.28455-1.80084,11.59222-3.13104,13.51691Zm31.87592,26.89368c-1.71692,0-3.63855.85803-4.57874,1.6347-.20386.16357-.32715.28601-.40851.28601-.08221,0-.12244-.04022-.16357-.12244-.65417-1.06268-2.00293-1.55334-3.71985-1.55334h-.2038c-.4093,0-.5318.04108-1.02246.04108-1.26733,0-1.88043,1.06268-1.88043,2.08429,0,1.06354.6131,2.08514,1.83936,2.08514h.24573c.7356,0,.94025.40845.94025,1.02161.04028,2.00293.04028,3.06561.04028,3.88342,0,1.55334-.04028,2.20758-.12244,6.37701,0,.44952-.16357.57202-.53094.57202h-.36823c-1.34869,0-2.04401.98132-2.04401,2.00293,0,.57202.24573,2.04401,2.20758,1.92072.49066-.04022,1.30841-.04022,2.1665-.04022,1.22626,0,2.53381,0,3.35162.04022h.08221c1.43005,0,2.16644-.98047,2.16644-2.00293,0-.89911-.6131-2.00293-2.24866-1.92072-.40845,0-.69446,0-.69446-.44958-.04114-1.83936-.04114-3.3114-.04114-4.53766,0-1.26648,0-2.20673.04114-2.94318.16351-2.57495,2.73846-4.20966,5.06854-4.25079,1.38983,0,2.04321-.98132,2.04321-1.96179,0-1.06274-.7356-2.1665-2.16565-2.1665Zm-22.43994,0c-1.71692,0-3.63849.85803-4.57874,1.6347-.20386.16357-.32715.28601-.40851.28601-.08215,0-.12244-.04022-.16351-.12244-.65424-1.06268-2.00293-1.55334-3.71985-1.55334h-.20386c-.4093,0-.53174.04108-1.0224.04108-1.2674,0-1.88049,1.06268-1.88049,2.08429,0,1.06354.6131,2.08514,1.83936,2.08514h.24579c.7356,0,.94025.40845.94025,1.02161.04022,2.00293.04022,3.06561.04022,3.88342,0,1.55334-.04022,2.20758-.12244,6.37701,0,.44952-.16357.57202-.53094.57202h-.36823c-1.34869,0-2.04401.98132-2.04401,2.00293,0,.57202.24573,2.04401,2.20758,1.92072.49066-.04022,1.30847-.04022,2.1665-.04022,1.22626,0,2.53387,0,3.35162.04022h.08221c1.43005,0,2.1665-.98047,2.1665-2.00293,0-.89911-.61316-2.00293-2.24872-1.92072-.40845,0-.69446,0-.69446-.44958-.04114-1.83936-.04114-3.3114-.04114-4.53766,0-1.26648,0-2.20673.04114-2.94318.16351-2.57495,2.73853-4.20966,5.06854-4.25079,1.38983,0,2.04321-.98132,2.04321-1.96179,0-1.06274-.7356-2.1665-2.16565-2.1665Zm-49.78485,11.64941c-.65424,0-1.38983.32709-1.92157,1.06268-1.71692,2.28894-4.82281,3.47491-7.92957,3.47491-7.88928,0-10.83246-6.62189-10.83246-11.28198,0-5.47705,3.55627-11.52698,10.79138-11.52698,4.90497,0,7.0304,2.73853,7.19391,4.25079.16357,1.22626,1.18604,1.79913,2.20764,1.79913,1.10376,0,2.2478-.69531,2.2478-2.12622v-.16357c-.04022-.81696-.08136-1.87964-.08136-2.98346,0-.94025.04114-1.88043.08136-2.73853v-.12329c0-1.30762-1.14404-1.96179-2.28894-1.96179-.94025,0-1.88049.44952-2.08429,1.26733-2.08514-1.06268-4.49652-1.55334-6.90796-1.55334C6.29566,91.84545,0,99.08049,0,108.03246,0,114.81792,4.41517,123.52416,15.615,123.52416c7.39862,0,12.42609-4.41431,12.42609-6.49945,0-1.34869-1.30762-2.57495-2.69739-2.57495Zm115.33734-58.36487c.30609-.7226.19373-1.5542-.29272-2.16986-.48651-.61438-1.26147-.91339-2.04407-.78503-10.4223,1.77264-15.37512-2.86481-18.03229-5.3559l-.26086-.24445c-1.65985-1.54755-3.35333-2.28601-5.08197-2.19543-2.01801.10815-3.17719,1.33569-3.3894,1.58063-.77582.89703-.67767,2.25287.21893,3.02869.89575.77502,2.25287.67816,3.02875-.21887.00079-.00085.18536-.09229.37152-.10193.48901-.03271,1.18268.35645,1.92328,1.04718l.2533.23694c2.65802,2.49194,7.87421,7.39655,17.92072,6.87903l-2.6991,6.36652c-.54095,1.27954-.66089,2.7276-.33801,4.078l2.79224,11.65698c.01343.05365.02765.10651.04443.15851.14093.43701,1.47119,4.26251,4.83789,4.26251,1.18604,0,2.1875-.95367,2.1875-2.13965s-.92096-2.13965-2.10693-2.13965c-.22144-.104-.62152-.72302-.81024-1.24219l-2.76788-11.55627c-.11157-.46472-.07043-.96375.11572-1.40326l4.12921-9.74249Zm-87.91107,62.82031c-.69446,0-.77667-.40851-.77667-1.92078,0-2.00293.12244-5.23212.20465-5.84521.04108-.57288.08136-1.10382.08136-1.59448,0-4.70038-2.41138-6.90796-6.94818-6.90796-4.12921,0-7.72577,2.1665-7.72577,4.12836,0,1.06268.89917,1.88043,1.96185,1.88043.49066,0,1.06268-.20465,1.51227-.73553.77667-.85889,2.1665-1.71692,4.00586-1.71692,2.7796,0,2.9021,2.08429,2.9021,2.57495,0,.85889-.32715,1.34869-.7356,1.38977-.65424.04114-4.16943.81781-6.99017,1.79828-2.73846.94025-3.96472,3.02539-3.96472,5.10968,0,3.14783,2.65717,6.4173,7.15369,6.4173,2.08429,0,4.25079-.65338,5.72278-1.83936.65338,1.18597,1.92072,1.43091,2.94232,1.43091.4093,0,2.57581,0,2.57581-2.24786,0-.94025-.6131-1.88049-1.92157-1.92157Zm-9.31934.77667c-2.08514,0-3.18896-1.26733-3.18896-2.53387,0-.98132.40936-2.69824,7.31726-3.55627h.04114c.48981,0,.57202.89911.57202,1.51227,0,2.90204-1.43091,4.57788-4.74146,4.57788Zm114.39539-50.56488c.96539-3.40033,2.10278-7.06439,2.69495-8.94489.53009-1.68256.06458-3.48376-1.21454-4.70038-1.1449-1.08911-2.20758-2.14673-3.19476-3.12811-.37329-.37152-.7373-.73346-1.0921-1.08405.34058-.48145.62323-.99103.84802-1.52948,1.44684-3.45984.07294-7.29083-1.46198-10.58209-.55359-1.18683.74731-3.70349,2.30573-5.79156,1.15918.77374,2.79224,1.31598,4.97546,1.16376,1.03925.93854,2.75195,2.2818,4.28851,2.55231,2.53052.44708,4.83459-1.39569,6.32422-5.05347.41937-1.02997.34222-2.17487-.21136-3.14111-.78845-1.37933-2.86938-4.94904-5.15833-8.30151-1.85028-2.7113-4.20215-5.12939-4.30109-5.2309-.82874-.84882-2.1875-.86432-3.03632-.03687-.84882.82825-.8656,2.18787-.03687,3.03625.02179.02222,2.18573,2.24829,3.828,4.65295,2.05243,3.00732,3.94128,6.21222,4.80609,7.71399-.64337,1.4527-1.2959,2.07379-1.46027,2.13336-.47058-.11115-1.81342-1.12347-2.76117-2.08136-.48987-.49609-1.18683-.72467-1.87885-.61145-2.7276.45044-3.44135-.77917-3.48248-.84711-.23065-.72345-.79681-1.18939-1.53656-1.35883-.74231-.17065-1.48541.14679-2.00714.69702-1.15247,1.21497-6.78802,7.51898-4.54938,12.31958,1.13818,2.44031,2.1933,5.19397,1.39148,7.1109-.02771.06793-.05872.1355-.09229.20258-.34302-.28601-.67767-.5481-1.00397-.78339-1.58691-1.1449-2.9826-1.65442-4.39252-1.58942-2.75281.11823-3.75842,1.55249-4.28772,2.3078-.03943.05664-.07715.11493-.11072.17444-.72467,1.2699-.67352,2.91089-.30109,3.97278,1.24805,3.56342,4.93353,3.68671,6.70831,3.25055.07214-.01721.14258-.03857.21136-.06329,1.19104-.42487,2.2403-.90338,3.15369-1.43933.41602.40887.84717.83832,1.2934,1.28162,1.00732,1.00275,2.09351,2.08264,3.26355,3.19525.08136.07758.11072.19165.07715.29858-.73138,2.32458-1.67114,5.4007-2.5835,8.68542-.05878.21167-.26178.59503-.66583.60583-1.27124.03387-3.33636.09247-4.37976.08154,0,0-.4762.03857-.92517-.44067-.54572-.5824-1.38116-.86023-2.19763-.61804-1.13818.33466-1.78906,1.5282-1.45441,2.66559.55859,1.89807,2.27972,2.6991,3.81293,2.6991.11157,0,.22229-.00421.33051-.01263,1.02576.00928,3.63934.00507,5.0929-.08887,2.11865-.13922,3.83472-1.45105,4.37152-3.34241Zm-10.51367-17.68781c-.35388.10083-1.33282.19482-1.56805-.49506-.03906-.11469-.04034-.29346.00037-.39923.13629-.30194.38495-.36243.85553-.341.25494.0116.77252.11536,1.69684.78217.026.01886.052.03729.078.05658-.32629.14429-.69531.2619-1.06268.39655Zm25.40405,51.65717c-2.53381,0-3.55627,1.26733-3.92365,2.33002-.04108.1225-.08221.20471-.16357.20471-.08215,0-.16351-.08221-.24573-.20471-1.26654-1.55334-3.76013-2.57495-5.96771-2.57495-6.45837,0-9.89136,4.94531-9.89136,10.34094,0,5.92749,4.16858,10.17828,9.72778,10.17828,2.24872,0,4.21051-.85809,5.72278-2.20679.08221-.08221.1225-.08221.16357-.08221.08221,0,.12244.04114.12244.20471l-.04022,2.20673c-.04108,4.25165-2.90289,6.091-6.00879,6.091-1.83942,0-3.76099-.65424-5.23218-1.83936-.4093-.32715-.85883-.49072-1.30841-.49072-1.14404,0-2.1665,1.02161-2.1665,2.20764,0,1.96179,3.76099,4.16943,8.05286,4.16943,5.19104,0,10.54559-3.14789,10.66888-10.21936,0-1.18518.04028-2.49359.04028-3.80121,0-2.33008-.04028-4.74146-.04028-6.74438,0-5.10968.12244-5.55927,1.30762-5.55927h.16357c1.10376,0,1.71692-.98132,1.71692-2.00293,0-1.55334-.89917-2.20758-2.6983-2.20758Zm-10.38202,16.55438c-3.14783,0-5.72278-2.45245-5.72278-6.45837,0-5.8855,4.70032-6.53973,5.84521-6.53973,3.22919,0,5.76392,2.45251,5.76392,6.45837,0,4.047-2.69824,6.53973-5.88635,6.53973Zm35.47913-3.10583c-.49066,0-.98132.2038-1.38983.65338-1.18512,1.26733-2.73846,2.49359-5.31348,2.49359-2.90289,0-5.51898-2.04407-5.5592-5.43597,0-.45038.08136-.77667.32709-.77667,7.92957,0,8.7876,0,10.05493-.04108,2.61609-.08221,3.88342-1.63556,3.88342-3.55634,0-3.10669-3.18805-7.23505-8.82953-7.23505-5.27234,0-9.68756,4.29187-9.68756,10.54559,0,6.091,4.16943,10.30072,9.76978,10.30072,4.12836,0,6.33594-1.34869,8.29773-3.39191.44958-.45044.61316-.94025.61316-1.43091,0-1.1449-1.06268-2.12537-2.1665-2.12537Zm-6.78546-10.3418c3.67871,0,4.5376,2.41138,4.5376,2.9834,0,.49066-.32709.85889-.81775.89996-1.10382.04028-2.94318.04028-4.61902.04028-3.80121,0-4.21051,0-4.21051-.36737,0-.69531,1.79913-3.55627,5.10968-3.55627Zm-68.03363-29.26569c-1.51813,0-1.91656-.88153-2.01129-1.36298-.02185-.14594-.05792-.28851-.10822-.42694l-7.49255-20.46045c-.4043-1.10132-1.37469-1.90021-2.53223-2.08557-1.15411-.18408-2.3233.27051-3.04718,1.18726-1.15662,1.46069-3.37177,4.20844-5.22119,6.19965-1.48041,1.59277-3.55042,2.52417-3.58313,2.53931-1.08282.47638-1.57684,1.73956-1.10297,2.82489.47388,1.08661,1.73956,1.5827,2.82745,1.10797.11737-.05115,2.89703-1.28119,5.00397-3.54913,1.4007-1.50726,2.95911-3.37097,4.26758-4.98804l6.78461,18.52838c.36987,1.78821,2.05157,4.78003,6.21515,4.78003,1.18597,0,2.14722-.96118,2.14722-2.14716,0-1.18604-.96124-2.14722-2.14722-2.14722Zm-9.34192,20.72217c1.758,0,2.86096-1.43005,2.86096-2.9021,0-1.55334-1.38983-2.7796-2.86096-2.7796-1.1449,0-2.86102.77667-2.86102,2.7796,0,1.88049,1.26654,2.9021,2.86102,2.9021Zm30.04315,21.25562c-.69446,0-.77667-.40851-.77667-1.92078,0-2.00293.12244-5.23212.20465-5.84521.04114-.57288.08136-1.10382.08136-1.59448,0-4.70038-2.41138-6.90796-6.94818-6.90796-4.12921,0-7.72577,2.1665-7.72577,4.12836,0,1.06268.89917,1.88043,1.96185,1.88043.49066,0,1.06268-.20465,1.51227-.73553.77667-.85889,2.1665-1.71692,4.00586-1.71692,2.77966,0,2.9021,2.08429,2.9021,2.57495,0,.85889-.32709,1.34869-.7356,1.38977-.65424.04114-4.16943.81781-6.99011,1.79828-2.73853.94025-3.96478,3.02539-3.96478,5.10968,0,3.14783,2.65717,6.4173,7.15369,6.4173,2.08429,0,4.25079-.65338,5.72278-1.83936.65338,1.18597,1.92078,1.43091,2.94232,1.43091.40936,0,2.57581,0,2.57581-2.24786,0-.94025-.6131-1.88049-1.92157-1.92157Zm-9.31934.77667c-2.08514,0-3.1889-1.26733-3.1889-2.53387,0-.98132.4093-2.69824,7.31726-3.55627h.04108c.48981,0,.57202.89911.57202,1.51227,0,2.90204-1.43091,4.57788-4.74146,4.57788Zm-17.33112-.65424c-.57202-.04028-.69446-.44958-.69446-.77667,0-2.04321.08136-5.0686.16272-10.70917v-.16357c0-2.94318-1.22626-4.33295-4.20972-4.37323h-1.30841c-1.34875,0-2.00293,1.14404-2.00293,2.24786,0,1.06268.6131,2.08429,1.88043,2.08429h.40851c1.0224,0,1.1449.44958,1.1449,1.59448v2.04401c0,2.81989-.04114,5.31348-.08136,7.19397,0,.7356-.16357.85803-.69531.85803h-.65424c-1.43011,0-2.1665,1.02246-2.1665,2.04401,0,.89917.57288,2.08514,2.33002,2.00299.49072-.04114,1.34875-.04114,2.33008-.04114,1.26733,0,2.69824,0,3.55627.04114h.08136c1.51312,0,2.24872-1.02161,2.24872-2.04407,0-1.06268-.81781-2.04321-2.33008-2.00293Z"/></svg>